HIERARCHY
ROOT Hips
{
  OFFSET -33.9132 29.2015 117.021
  CHANNELS 6 Xposition Yposition Zposition Zrotation Xrotation Yrotation
  JOINT LeftUpLeg
  {
    OFFSET 8.64259 1.95398 -2.38835
    CHANNELS 3 Zrotation Xrotation Yrotation
    JOINT LeftLeg
    {
      OFFSET 43.7702 0 0
      CHANNELS 3 Zrotation Xrotation Yrotation
      JOINT LeftFoot
      {
        OFFSET 40.6238 0 0
        CHANNELS 3 Zrotation Xrotation Yrotation
        JOINT LeftToeBase
        {
          OFFSET 12.7242 0 0
          CHANNELS 3 Zrotation Xrotation Yrotation
          End Site
          {
            OFFSET 0 0 0
          }
        }
      }
    }
  }
  JOINT RightUpLeg
  {
    OFFSET -8.2249 1.95398 -2.59336
    CHANNELS 3 Zrotation Xrotation Yrotation
    JOINT RightLeg
    {
      OFFSET 43.5653 0 0
      CHANNELS 3 Zrotation Xrotation Yrotation
      JOINT RightFoot
      {
        OFFSET 40.6238 0 0
        CHANNELS 3 Zrotation Xrotation Yrotation
        JOINT RightToeBase
        {
          OFFSET 12.7242 0 0
          CHANNELS 3 Zrotation Xrotation Yrotation
          End Site
          {
            OFFSET 0 0 0
          }
        }
      }
    }
  }
  JOINT Spine
  {
    OFFSET 0.165834 0.87714 6.61349
    CHANNELS 3 Zrotation Xrotation Yrotation
    JOINT Spine1
    {
      OFFSET 7.38963 1.71661e-005 0
      CHANNELS 3 Zrotation Xrotation Yrotation
      JOINT Spine2
      {
        OFFSET 11.9445 1.14441e-005 0
        CHANNELS 3 Zrotation Xrotation Yrotation
        JOINT Spine3
        {
          OFFSET 14.7254 4.19617e-005 0
          CHANNELS 3 Zrotation Xrotation Yrotation
          JOINT Spine4
          {
            OFFSET 10.9679 0 0
            CHANNELS 3 Zrotation Xrotation Yrotation
            JOINT RightShoulder
            {
              OFFSET 2.46616 -1.6653 3.69651
              CHANNELS 3 Zrotation Xrotation Yrotation
              JOINT RightArm
              {
                OFFSET 13.0012 0 0
                CHANNELS 3 Zrotation Xrotation Yrotation
                JOINT RightForeArm
                {
                  OFFSET 28.7848 1.62311e-005 0
                  CHANNELS 3 Zrotation Xrotation Yrotation
                  JOINT RightHand
                  {
                    OFFSET 26.5688 1.62095e-005 0
                    CHANNELS 3 Zrotation Xrotation Yrotation
                    End Site
                    {
                      OFFSET 0 0 0
                    }
                  }
                }
              }
            }
            JOINT LeftShoulder
            {
              OFFSET 2.38034 -1.29275 -3.7523
              CHANNELS 3 Zrotation Xrotation Yrotation
              JOINT LeftArm
              {
                OFFSET 16.3182 6.07031e-005 0
                CHANNELS 3 Zrotation Xrotation Yrotation
                JOINT LeftForeArm
                {
                  OFFSET 27.0901 0 0
                  CHANNELS 3 Zrotation Xrotation Yrotation
                  JOINT LeftHand
                  {
                    OFFSET 24.5451 1.51738e-005 0
                    CHANNELS 3 Zrotation Xrotation Yrotation
                    End Site
                    {
                      OFFSET 0 0 0
                    }
                  }
                }
              }
            }
            JOINT Neck
            {
              OFFSET 5.0226 -0.0266342 0
              CHANNELS 3 Zrotation Xrotation Yrotation
              JOINT Head
              {
                OFFSET 6.69364 2.86102e-005 0
                CHANNELS 3 Zrotation Xrotation Yrotation
                End Site
                {
                  OFFSET 0 0 0
                }
              }
            }
          }
        }
      }
    }
  }
}
MOTION
Frames:	12
Frame Time:	0.0416667
-91.667 91.7539 37.5424 89.1479 -44.4211 85.6624 -167.258 20.8579 111.239 -33.8352 6.1372 -0.39728 61.2134 1.56448 -1.80425 22.8185 -9.4341 12.8783 165.057 30.2435 71.8918 -46.6124 -20.1261 1.46894 71.17 -7.83301 -0.16614 34.9203 -2.7867 0.00712939 0.319285 8.26649 -90.1077 10.3416 0.586845 -0.264954 -1.32923 0.574589 -0.290535 -23.8654 0.63934 -0.0763218 -3.85276 0.639322 -0.0763413 94.5847 -21.8489 -99.8692 46.2156 7.45437 -1.13369 -4.43667 -26.8666 -5.03999 -20.932 3.82338 -26.347 -83.9725 -43.8373 87.052 -21.159 -7.80906 2.89238 -7.44388 21.1355 -8.40926 8.03082 -2.15375 -26.39 -16.0397 18.7116 14.5063 -13.2113 18.1023 9.70196 
-86.0686 89.9205 30.8447 89.5423 -41.6117 88.782 -163.821 25.632 111.304 -43.0506 6.35439 -2.56698 70.786 6.74488 -5.44365 36.6123 -3.1178 18.6172 165.158 28.9667 68.8863 -43.0791 -19.0888 0.892509 66.6137 -4.28405 1.37416 37.6885 -3.79355 -1.49177 0.415093 8.30031 -90.3932 10.2747 0.647404 -0.836567 -1.39635 0.609952 -0.864254 -23.9315 0.868878 -0.603323 -3.91883 0.86888 -0.60333 94.645 -22.2444 -99.6092 44.0374 7.34274 -4.88842 -4.37817 -25.6602 -5.02053 -20.5219 4.09721 -28.279 -83.6225 -42.7635 87.4883 -22.7689 -7.49466 5.28633 -7.07801 24.0456 -8.25204 6.98434 -1.86393 -25.9522 -15.3079 17.8199 10.2588 -14.8914 16.8706 10.9234 
-79.3923 90.6501 23.18 91.4161 -35.2753 91.1148 -162.202 27.2704 106.619 -49.4856 10.1273 -4.02688 79.9313 12.9412 -3.81867 29.7715 -5.04328 12.8142 167.49 23.1211 65.181 -36.9778 -17.5814 -3.33331 56.9612 2.3325 1.96807 29.8473 -0.432631 -0.628237 0.25571 8.39763 -90.517 10.0788 0.274157 -1.0498 -1.59256 0.227684 -1.06086 -24.1252 0.576968 -0.918892 -4.11252 0.576981 -0.918891 95.7786 -23.0743 -96.7672 41.7958 7.82822 -6.74144 -4.32349 -24.5112 -5.00377 -22.1545 4.93372 -30.722 -84.2459 -40.6586 86.1635 -23.5354 -6.0372 5.10519 -8.45973 26.499 -5.99022 7.06514 -1.5668 -22.7646 -15.6208 15.0507 3.34911 -14.5241 14.0247 12.189 
-73.627 91.9219 15.789 92.0499 -30.6256 91.1561 -162.851 24.6486 99.9875 -50.2865 10.0262 -4.58284 84.3311 15.7115 -4.31285 26.1402 -7.10692 12.4457 172.909 22.8557 64.9492 -43.7926 -18.5046 -8.52366 62.012 -1.15707 -1.06148 15.8667 5.04121 2.78666 0.165448 8.44263 -90.4655 9.98836 0.118216 -0.933911 -1.68291 0.07702 -0.938222 -24.2158 0.393408 -0.85522 -4.20315 0.393427 -0.855217 96.3446 -22.8774 -95.5292 41.7962 8.43767 -4.09778 -4.39494 -26.0095 -5.0261 -24.0358 5.30706 -30.4562 -85.1321 -40.836 84.7006 -18.8561 -4.58251 0.125738 -11.6539 27.2796 -1.65537 5.49887 -1.05729 -20.26 -17.3086 12.506 1.35321 -13.2943 11.7718 10.6011 
-69.5379 93.7205 10.0436 92.5935 -29.6016 91.1222 -164.533 20.1262 94.7621 -46.4891 6.41995 -5.19984 85.1741 16.5236 -3.31959 22.0243 -8.45972 10.186 174.9 27.6733 70.1742 -49.1708 -12.7121 -6.44423 66.9439 -4.58953 -1.26272 17.4883 4.15828 3.15282 0.00438193 8.67059 -90.3543 9.53172 -0.150899 -0.690864 -2.1394 -0.181171 -0.683559 -24.6731 0.0637024 -0.704275 -4.66043 0.0637007 -0.704281 96.4372 -22.367 -95.4409 43.1133 8.49116 -1.64436 -4.58435 -29.8178 -5.09417 -21.5533 4.30324 -28.2233 -84.9986 -40.3696 84.8497 -18.7117 -8.02606 -2.40283 -10.2126 21.5204 -2.93337 8.34429 -1.47332 -19.2759 -17.9109 11.9862 2.98229 -12.5043 11.4785 9.04481 
-65.9461 95.9435 5.86309 91.1804 -30.2384 91.1485 -166.848 16.3783 91.3268 -39.6727 2.24272 -5.79697 83.9149 15.6834 -2.24649 18.2299 -10.152 9.06572 178.09 33.1844 81.1283 -50.6607 -14.7457 -4.45809 66.8823 -4.72289 -1.76632 20.5323 2.41614 4.30217 -0.185623 8.67069 -90.3027 9.53081 -0.506484 -0.561534 -2.14015 -0.530732 -0.538702 -24.6746 -0.314303 -0.687788 -4.66193 -0.314324 -0.687799 96.5139 -22.2679 -95.2871 45.0671 8.53618 1.43664 -4.62958 -30.6928 -5.11226 -20.43 3.61188 -25.7244 -85.0617 -39.3162 84.5701 -19.9868 -9.80793 -4.88063 -9.40728 18.1361 -3.70952 6.98232 -1.71859 -24.0478 -18.8221 12.4099 2.8963 -13.3567 11.7909 10.0896 
-61.932 96.9415 2.52638 89.9801 -28.5213 90.2255 -168.46 12.8761 88.0696 -34.2488 1.79209 -6.8338 83.1554 15.0203 -1.59328 16.0235 -11.3723 8.80381 179.587 36.7894 91.6117 -47.8053 -18.6523 -2.42563 65.1518 -3.23245 -1.23347 20.6496 2.96194 2.57982 -0.814745 8.64932 -90.147 9.57449 -1.69066 -0.161601 -2.09539 -1.69612 -0.0870245 -24.6381 -1.5639 -0.662357 -4.62541 -1.5639 -0.662361 97.1349 -21.5779 -93.9984 48.0669 8.31564 4.40928 -4.58178 -29.7688 -5.09338 -20.5555 3.26287 -23.6576 -85.2948 -38.4403 84.0181 -19.9378 -10.4522 -6.55794 -7.76216 18.2014 -6.80816 8.11807 -2.51213 -29.5075 -19.2309 13.0068 2.62754 -13.5533 12.2489 11.6714 
-57.2747 96.3362 -0.692172 89.3677 -24.3295 88.0668 -169.355 9.89457 84.14 -32.1929 4.23444 -8.34006 84.8104 16.2982 -0.877588 11.1731 -11.935 5.12237 175.697 36.4387 99.229 -39.4386 -13.2255 2.96903 61.6158 0.200421 3.39592 27.6657 1.29644 -3.12162 -1.5047 8.62632 -89.9792 9.62691 -2.99036 0.272855 -2.04067 -2.97546 0.404311 -24.6025 -2.93401 -0.639285 -4.58989 -2.93398 -0.639273 98.3517 -21.3957 -91.167 49.6493 8.8472 7.99945 -4.37806 -25.6541 -5.01984 -18.517 2.81202 -22.989 -85.7515 -37.9163 83.1296 -20.0213 -11.1623 -12.5758 -6.78593 19.3543 -7.90263 8.71567 -3.00606 -32.7052 -18.5608 12.9407 1.9881 -14.4355 11.9687 12.5398 
-51.4414 93.9209 -4.02963 89.4531 -20.8023 86.6486 -168.928 6.8836 81.0648 -34.3363 7.23201 -10.5587 90.6044 19.9451 -1.71905 8.53723 -12.2232 3.23141 172.319 31.4147 104.213 -27.2679 -3.41095 8.16127 63.1442 -1.02663 0.59491 28.9645 -0.685221 2.46759 -1.8627 8.56981 -89.8946 9.74556 -3.66551 0.498674 -1.92037 -3.63998 0.659724 -24.4965 -3.64566 -0.62752 -4.48382 -3.64569 -0.627537 99.0017 -21.3562 -89.6335 51.3873 9.46904 11.7164 -4.31213 -24.2679 -5.00032 -17.8498 2.23497 -19.9412 -86.2255 -37.428 82.2061 -20.313 -11.8418 -21.0229 -6.18791 22.1221 -7.53591 9.84855 -3.51706 -34.2235 -18.7693 12.2733 0.224237 -14.9196 11.1557 12.9904 
-44.8335 91.7028 -8.15074 88.3157 -16.9896 85.9887 -170.326 2.64709 77.3858 -33.0674 6.7553 -10.6405 95.7343 21.7549 -5.52709 4.7452 -13.0992 1.38447 173.391 32.0365 104.7 -26.938 0.663747 8.1295 63.3087 -0.522759 2.48279 28.7671 -0.594951 2.49334 -2.19635 8.38954 -90.1064 10.107 -4.42512 0.161101 -1.55643 -4.41373 0.356069 -24.1494 -4.2686 -1.17877 -4.13679 -4.26861 -1.17878 99.449 -21.3243 -88.5753 52.2944 9.35714 12.0945 -4.31023 -24.2275 -4.99975 -17.5716 1.97664 -18.4971 -86.8353 -37.6879 81.1936 -19.4873 -10.2268 -28.9044 -6.40237 25.3646 -7.20256 9.90112 -3.40701 -33.207 -17.6206 11.6276 -1.06514 -16.0711 10.2702 13.5209 
-36.3259 91.3176 -13.7895 87.1103 -15.038 88.5698 -171.669 -1.2631 76.1491 -30.6825 8.15784 -10.3194 88.4369 18.1826 -2.46288 7.24557 -8.89098 -3.12049 174.556 33.2781 104.983 -33.5461 -4.13942 6.46377 67.8708 -3.91567 -1.09708 17.2921 3.28605 5.54228 -2.18577 8.34214 -91.0221 10.1687 -4.82237 -1.62678 -1.49381 -4.8893 -1.41253 -24.0776 -4.11021 -3.00254 -4.06498 -4.11022 -3.00255 99.5348 -20.3644 -88.4927 50.801 8.86386 9.13326 -4.2262 -22.4181 -4.97606 -19.07 2.30241 -19.3305 -87.4798 -37.3608 79.9974 -21.8945 -7.09116 -36.1133 -9.2326 27.3128 -2.88334 7.00655 -2.4019 -31.7454 -16.568 10.5887 0.325031 -16.8721 9.07571 13.8444 
-28.4276 92.2136 -18.3952 88.5448 -15.0616 90.2254 -165.551 0.185128 82.833 -36.8624 22.1191 -12.4302 68.8095 3.89091 -6.14942 33.2717 -1.96994 11.7832 175.668 32.711 104.255 -42.7756 -3.90448 3.94839 72.2937 -7.50931 -3.8826 12.0672 4.68231 7.79113 -1.83545 8.35949 -91.3849 10.1047 -4.28832 -2.39003 -1.56102 -4.3893 -2.19878 -24.1168 -3.37211 -3.5686 -4.10413 -3.37212 -3.56861 99.3952 -20.8638 -88.762 50.0709 8.35911 6.73944 -4.17525 -21.3034 -4.96367 -19.7397 2.64393 -20.859 -87.3485 -36.8792 80.1186 -19.8636 0.295792 -38.6441 -13.2808 32.3481 -0.345539 6.88812 -2.2084 -30.5658 -19.8412 9.83304 1.23042 -16.572 8.79962 10.7584 
